<svg width="100%" height="1.5em" stroke-width="1.5" viewBox="0 0 24 24" fill="none" xmlns="http://www.w3.org/2000/svg" color="var(--token-cc50110d-a04d-448e-9f28-01c283a5a429, rgb(6, 111, 172)) /* {&quot;name&quot;:&quot;RC Blue&quot;} */" style="width: 100%; height: 100%;"><path d="M4 3h16a1 1 0 011 1v1.586a1 1 0 01-.293.707l-6.415 6.414a1 1 0 00-.292.707v6.305a1 1 0 01-1.243.97l-2-.5a1 1 0 01-.757-.97v-5.805a1 1 0 00-.293-.707L3.292 6.293A1 1 0 013 5.586V4a1 1 0 011-1z" stroke="currentColor" stroke-linecap="round" stroke-linejoin="round"></path></svg>