<svg xmlns="http://www.w3.org/2000/svg" xmlns:xlink="http://www.w3.org/1999/xlink" width="600px" height="500px" viewBox="0 0 600 500" version="1.1">
    <!-- Generator: Sketch 55.2 (78181) - https://sketchapp.com -->
    <title>No Records Illustration</title>
    <desc>Created with Sketch.</desc>
    <g id="No-Records-Illustration" stroke="none" stroke-width="1" fill="none" fill-rule="evenodd">
        <g id="Group" transform="translate(50.000000, 84.000000)">
            <path d="M386.227545,239 L137.724551,239 C126.149721,239 116.766467,229.642751 116.766467,218.1 C116.766467,206.557249 126.149721,197.2 137.724551,197.2 L20.9580838,197.2 C9.38325375,197.2 0,187.842751 0,176.3 C0,164.757249 9.38325375,155.4 20.9580838,155.4 L140.718563,155.4 C152.293393,155.4 161.676647,146.042751 161.676647,134.5 C161.676647,122.957249 152.293393,113.6 140.718563,113.6 L65.8682635,113.6 C54.2934334,113.6 44.9101796,104.242751 44.9101796,92.7 C44.9101796,81.1572487 54.2934334,71.8 65.8682635,71.8 L185.628743,71.8 C174.053912,71.8 164.670659,62.4427513 164.670659,50.9 C164.670659,39.3572487 174.053912,30 185.628743,30 L479.041916,30 C490.616746,30 500,39.3572487 500,50.9 C500,62.4427513 490.616746,71.8 479.041916,71.8 L359.281437,71.8 C370.856267,71.8 380.239521,81.1572487 380.239521,92.7 C380.239521,104.242751 370.856267,113.6 359.281437,113.6 L425.149701,113.6 C436.724531,113.6 446.107784,122.957249 446.107784,134.5 C446.107784,146.042751 436.724531,155.4 425.149701,155.4 L394.688883,155.4 C380.094532,155.4 368.263473,164.757249 368.263473,176.3 C368.263473,183.995168 374.251497,190.961834 386.227545,197.2 C397.802375,197.2 407.185629,206.557249 407.185629,218.1 C407.185629,229.642751 397.802375,239 386.227545,239 Z M479,156 C467.40202,156 458,146.59798 458,135 C458,123.40202 467.40202,114 479,114 C490.59798,114 500,123.40202 500,135 C500,146.59798 490.59798,156 479,156 Z" id="Background" fill="#424242"/>
            <path d="M213.355653,174 C213.121237,175.65819 213,177.352724 213,179.075548 C213,198.939917 229.117749,215.04317 249,215.04317 C268.882251,215.04317 285,198.939917 285,179.075548 C285,177.352724 284.878763,175.65819 284.644347,174 L372,174 L372,254.008094 C372,258.974187 367.970563,263 363,263 L135,263 C130.029437,263 126,258.974187 126,254.008094 L126,174 L213.355653,174 Z" id="Path" fill="#eeeeee"/>
            <path d="M288,173.295455 C288,194.671385 270.539105,212 249,212 C227.460895,212 210,194.671385 210,173.295455 C210,172.602937 210.018326,171.914667 210.054524,171.231096 L126,171.231096 L154.681319,87.0702222 C155.91779,83.4419905 159.347553,81 163.206914,81 L334.793086,81 C338.652447,81 342.08221,83.4419905 343.318681,87.0702222 L372,171.231096 L287.945476,171.231096 C287.981674,171.914667 288,172.602937 288,173.295455 Z" id="Path" fill="#eeeeee"/>
            <path d="M282.292683,176.188503 C282.292683,192.669182 267.387041,209 249,209 C230.612959,209 215.707317,192.669182 215.707317,176.188503 C215.707317,175.654577 215.722962,172.153338 215.753862,171.62631 L153,171.62631 L177.484053,112.680095 C178.539577,109.882756 181.467423,108 184.762,108 L313.238,108 C316.532577,108 319.460423,109.882756 320.515947,112.680095 L345,171.62631 L282.246138,171.62631 C282.277038,172.153338 282.292683,175.654577 282.292683,176.188503 Z" id="Path" fill="#ffffff"/>
            <path d="M127.25,171.629576 L127.25,258 C127.25,258.966498 128.033502,259.75 129,259.75 L369,259.75 C369.966498,259.75 370.75,258.966498 370.75,258 L370.75,171.629576 L340.752574,82.4421131 C340.512998,81.7298121 339.845392,81.25 339.093881,81.25 L158.906119,81.25 C158.154608,81.25 157.487002,81.7298121 157.247426,82.4421131 L127.25,171.629576 Z" id="Rectangle" stroke="#75A4FE" stroke-width="2.5"/>
            <path d="M148,169.5 L155,169.5 L148,169.5 Z M170,169 C181.571129,169 194.058567,169 207.462315,169 C212.977441,169 212.977441,173.049911 212.977441,175.142857 C212.977441,195.498495 229.13291,212 249.061691,212 C268.990471,212 285.14594,195.498495 285.14594,175.142857 C285.14594,173.049911 285.14594,169 290.661066,169 L364,169" id="Shape" stroke="#75A4FE" stroke-width="2.5" stroke-linecap="round" stroke-linejoin="round"/>
            <path d="M245.5,0 L245.5,51 L245.5,0 Z M168,13 L202,51 L168,13 Z M322,13 L288,51 L322,13 Z" id="lines" stroke="#A4C3FE" stroke-width="2.5" stroke-linecap="round" stroke-linejoin="round"/>
        </g>
        <text id="You-have-no-records." font-family="Lato-Regular, Lato" font-size="28" font-weight="normal" fill="white">
            <tspan x="173" y="410">You have no records.</tspan>
        </text>
    </g>
</svg>