<svg xmlns="http://www.w3.org/2000/svg" viewBox="0 0 1920 1920" width="1920" height="1920" preserveAspectRatio="xMidYMid slice" style="width: 100%; height: 100%; transform: translate3d(0px, 0px, 0px);"><defs><clipPath id="__lottie_element_52"><rect width="1920" height="1920" x="0" y="0"></rect></clipPath><mask id="__lottie_element_59" mask-type="alpha"><g transform="matrix(1,0,0,1,600.093017578125,634.9180297851562)" opacity="1" style="display: block;"><g opacity="1" transform="matrix(1,0,0,1,346.9159851074219,346.9169921875)"><path fill="rgb(6,111,172)" fill-opacity="1" d=" M346.6669921875,0 C346.6669921875,191.45799255371094 191.45899963378906,346.6669921875 0,346.6669921875 C-191.45799255371094,346.6669921875 -346.6669921875,191.45799255371094 -346.6669921875,0 C-346.6669921875,-191.45899963378906 -191.45799255371094,-346.6659851074219 0,-346.6659851074219 C191.45899963378906,-346.6659851074219 346.6669921875,-191.45899963378906 346.6669921875,0z"></path></g></g></mask></defs><g clip-path="url(#__lottie_element_52)"><g transform="matrix(1,0,0,1,996.427978515625,473.7359924316406)" opacity="0.01800981818139576" style="display: none;"><g opacity="1" transform="matrix(1,0,0,1,30.770999908447266,30.77199935913086)"><path fill="rgb(70,190,89)" fill-opacity="1" d=" M30.52199935913086,-0.0010000000474974513 C30.52199935913086,16.856000900268555 16.856000900268555,30.52199935913086 0,30.52199935913086 C-16.85700035095215,30.52199935913086 -30.52199935913086,16.856000900268555 -30.52199935913086,-0.0010000000474974513 C-30.52199935913086,-16.85700035095215 -16.85700035095215,-30.52199935913086 0,-30.52199935913086 C16.856000900268555,-30.52199935913086 30.52199935913086,-16.85700035095215 30.52199935913086,-0.0010000000474974513z"></path></g></g><g transform="matrix(1,0,0,1,755.1229858398438,505.79296875)" opacity="0.044224717681658206" style="display: none;"><g opacity="1" transform="matrix(1,0,0,1,33.51499938964844,41.66400146484375)"><path fill="rgb(223,68,61)" fill-opacity="1" d=" M28.858999252319336,29.054000854492188 C28.858999252319336,29.054000854492188 10.732999801635742,39.51900100708008 10.732999801635742,39.51900100708008 C7.451000213623047,41.41400146484375 3.255000114440918,40.28900146484375 1.3600000143051147,37.007999420166016 C1.3600000143051147,37.007999420166016 -31.3700008392334,-19.683000564575195 -31.3700008392334,-19.683000564575195 C-33.26499938964844,-22.964000701904297 -32.13999938964844,-27.15999984741211 -28.858999252319336,-29.054000854492188 C-28.858999252319336,-29.054000854492188 -10.732000350952148,-39.52000045776367 -10.732000350952148,-39.52000045776367 C-7.451000213623047,-41.41400146484375 -3.255000114440918,-40.290000915527344 -1.3600000143051147,-37.00899887084961 C-1.3600000143051147,-37.00899887084961 31.3700008392334,19.68199920654297 31.3700008392334,19.68199920654297 C33.26499938964844,22.964000701904297 32.13999938964844,27.159000396728516 28.858999252319336,29.054000854492188z"></path></g></g><g transform="matrix(1,0,0,1,482.14501953125,688.7459716796875)" opacity="0.044224717681658206" style="display: none;"><g opacity="1" transform="matrix(1,0,0,1,47.32500076293945,47.32500076293945)"><path fill="rgb(70,190,89)" fill-opacity="1" d=" M-17.558000564575195,-36.369998931884766 C-17.558000564575195,-36.369998931884766 -13.480999946594238,-34.98699951171875 -13.480999946594238,-34.98699951171875 C-8.857999801635742,-33.41899871826172 -3.759000062942505,-34.22700119018555 0.15399999916553497,-37.14699935913086 C0.15399999916553497,-37.14699935913086 3.6050000190734863,-39.72200012207031 3.6050000190734863,-39.72200012207031 C13.458000183105469,-47.07500076293945 27.466999053955078,-39.9379997253418 27.309999465942383,-27.643999099731445 C27.309999465942383,-27.643999099731445 27.2549991607666,-23.339000701904297 27.2549991607666,-23.339000701904297 C27.191999435424805,-18.457000732421875 29.53499984741211,-13.857000350952148 33.520999908447266,-11.038000106811523 C33.520999908447266,-11.038000106811523 37.0369987487793,-8.552000045776367 37.0369987487793,-8.552000045776367 C47.07500076293945,-1.4529999494552612 44.6150016784668,14.074000358581543 32.875,17.724000930786133 C32.875,17.724000930786133 28.76300048828125,19.00200080871582 28.76300048828125,19.00200080871582 C24.10099983215332,20.451000213623047 20.45199966430664,24.101999282836914 19.003000259399414,28.763999938964844 C19.003000259399414,28.763999938964844 17.724000930786133,32.875999450683594 17.724000930786133,32.875999450683594 C14.074999809265137,44.61600112915039 -1.4529999494552612,47.07500076293945 -8.552000045776367,37.0369987487793 C-8.552000045776367,37.0369987487793 -11.038999557495117,33.52199935913086 -11.038999557495117,33.52199935913086 C-13.857999801635742,29.535999298095703 -18.45800018310547,27.191999435424805 -23.339000701904297,27.2549991607666 C-23.339000701904297,27.2549991607666 -27.645000457763672,27.30900001525879 -27.645000457763672,27.30900001525879 C-39.9379997253418,27.465999603271484 -47.07500076293945,13.458999633789062 -39.72200012207031,3.6050000190734863 C-39.72200012207031,3.6050000190734863 -37.145999908447266,0.15399999916553497 -37.145999908447266,0.15399999916553497 C-34.22600173950195,-3.757999897003174 -33.41899871826172,-8.857000350952148 -34.98699951171875,-13.480999946594238 C-34.98699951171875,-13.480999946594238 -36.369998931884766,-17.558000564575195 -36.369998931884766,-17.558000564575195 C-40.31800079345703,-29.20199966430664 -29.20199966430664,-40.31800079345703 -17.558000564575195,-36.369998931884766z"></path></g></g><g transform="matrix(1,0,0,1,404.6239929199219,909.5830078125)" opacity="0.044224717681658206" style="display: none;"><g opacity="1" transform="matrix(1,0,0,1,42,25.143999099731445)"><path fill="rgb(6,111,172)" fill-opacity="1" d=" M36.34299850463867,-18.871999740600586 C36.34299850463867,-18.871999740600586 40.92100143432617,1.5520000457763672 40.92100143432617,1.5520000457763672 C41.75,5.249000072479248 39.42499923706055,8.918999671936035 35.72700119018555,9.746999740600586 C35.72700119018555,9.746999740600586 -28.148000717163086,24.06599998474121 -28.148000717163086,24.06599998474121 C-31.844999313354492,24.893999099731445 -35.513999938964844,22.569000244140625 -36.34400177001953,18.871999740600586 C-36.34400177001953,18.871999740600586 -40.922000885009766,-1.5529999732971191 -40.922000885009766,-1.5529999732971191 C-41.75,-5.25 -39.42499923706055,-8.918999671936035 -35.72800064086914,-9.746999740600586 C-35.72800064086914,-9.746999740600586 28.148000717163086,-24.06599998474121 28.148000717163086,-24.06599998474121 C31.844999313354492,-24.893999099731445 35.513999938964844,-22.569000244140625 36.34299850463867,-18.871999740600586z"></path></g></g><g transform="matrix(1,0,0,1,486.5260009765625,1146.3880615234375)" opacity="0.044224717681658206" style="display: none;"><g opacity="1" transform="matrix(1,0,0,1,30.770999908447266,30.770999908447266)"><path fill="rgb(249,192,51)" fill-opacity="1" d=" M30.520999908447266,0 C30.520999908447266,16.856000900268555 16.856000900268555,30.520999908447266 0,30.520999908447266 C-16.85700035095215,30.520999908447266 -30.520999908447266,16.856000900268555 -30.520999908447266,0 C-30.520999908447266,-16.856000900268555 -16.85700035095215,-30.520999908447266 0,-30.520999908447266 C16.856000900268555,-30.520999908447266 30.520999908447266,-16.856000900268555 30.520999908447266,0z"></path></g></g><g transform="matrix(1,0,0,1,482.14501953125,1316.486083984375)" opacity="0.044224717681658206" style="display: none;"><g opacity="1" transform="matrix(1,0,0,1,47.32500076293945,47.32500076293945)"><path fill="rgb(255,136,0)" fill-opacity="1" d=" M-17.558000564575195,-36.369998931884766 C-17.558000564575195,-36.369998931884766 -13.480999946594238,-34.98699951171875 -13.480999946594238,-34.98699951171875 C-8.857999801635742,-33.41999816894531 -3.759000062942505,-34.22700119018555 0.15399999916553497,-37.14699935913086 C0.15399999916553497,-37.14699935913086 3.6050000190734863,-39.722999572753906 3.6050000190734863,-39.722999572753906 C13.458000183105469,-47.07500076293945 27.466999053955078,-39.9379997253418 27.309999465942383,-27.643999099731445 C27.309999465942383,-27.643999099731445 27.2549991607666,-23.339000701904297 27.2549991607666,-23.339000701904297 C27.191999435424805,-18.457000732421875 29.53499984741211,-13.857000350952148 33.520999908447266,-11.038000106811523 C33.520999908447266,-11.038000106811523 37.0369987487793,-8.553000450134277 37.0369987487793,-8.553000450134277 C47.07500076293945,-1.4529999494552612 44.6150016784668,14.074000358581543 32.875,17.724000930786133 C32.875,17.724000930786133 28.76300048828125,19.00200080871582 28.76300048828125,19.00200080871582 C24.10099983215332,20.451000213623047 20.45199966430664,24.101999282836914 19.003000259399414,28.763999938964844 C19.003000259399414,28.763999938964844 17.724000930786133,32.875 17.724000930786133,32.875 C14.074999809265137,44.61600112915039 -1.4529999494552612,47.07500076293945 -8.552000045776367,37.0369987487793 C-8.552000045776367,37.0369987487793 -11.038999557495117,33.52199935913086 -11.038999557495117,33.52199935913086 C-13.857999801635742,29.53499984741211 -18.45800018310547,27.191999435424805 -23.339000701904297,27.253999710083008 C-23.339000701904297,27.253999710083008 -27.645000457763672,27.309999465942383 -27.645000457763672,27.309999465942383 C-39.9379997253418,27.466999053955078 -47.07500076293945,13.458999633789062 -39.72200012207031,3.6059999465942383 C-39.72200012207031,3.6059999465942383 -37.145999908447266,0.15399999916553497 -37.145999908447266,0.15399999916553497 C-34.22600173950195,-3.759000062942505 -33.41899871826172,-8.857000350952148 -34.98699951171875,-13.480999946594238 C-34.98699951171875,-13.480999946594238 -36.369998931884766,-17.558000564575195 -36.369998931884766,-17.558000564575195 C-40.31800079345703,-29.20199966430664 -29.20199966430664,-40.31800079345703 -17.558000564575195,-36.369998931884766z"></path></g></g><g transform="matrix(1,0,0,1,1238.2919921875,571.0650024414062)" opacity="0.044224717681658206" style="display: none;"><g opacity="1" transform="matrix(1,0,0,1,77.85600280761719,74.77400207519531)"><path stroke-linecap="round" stroke-linejoin="round" fill-opacity="0" stroke="rgb(6,111,172)" stroke-opacity="1" stroke-width="20" d=" M-18.60700035095215,24.77400016784668 C-27.856000900268555,12.718999862670898 -24.993000030517578,-5.23799991607666 -12.26200008392334,-15.005999565124512 C0.46799999475479126,-24.77400016784668 18.555999755859375,-22.89299964904785 27.80500030517578,-10.838000297546387 C27.822999954223633,-10.8149995803833 27.839000701904297,-10.791999816894531 27.85700035095215,-10.770000457763672"></path></g></g><g transform="matrix(1,0,0,1,1350.0869140625,825.9459838867188)" opacity="0.044224717681658206" style="display: none;"><g opacity="1" transform="matrix(1,0,0,1,47.32500076293945,47.32500076293945)"><path fill="rgb(255,187,49)" fill-opacity="1" d=" M-17.558000564575195,-36.369998931884766 C-17.558000564575195,-36.369998931884766 -13.480999946594238,-34.98699951171875 -13.480999946594238,-34.98699951171875 C-8.857999801635742,-33.41899871826172 -3.757999897003174,-34.22700119018555 0.15399999916553497,-37.14699935913086 C0.15399999916553497,-37.14699935913086 3.6059999465942383,-39.72200012207031 3.6059999465942383,-39.72200012207031 C13.460000038146973,-47.07500076293945 27.466999053955078,-39.9379997253418 27.309999465942383,-27.643999099731445 C27.309999465942383,-27.643999099731445 27.2549991607666,-23.339000701904297 27.2549991607666,-23.339000701904297 C27.19300079345703,-18.457000732421875 29.53700065612793,-13.857000350952148 33.52199935913086,-11.038000106811523 C33.52199935913086,-11.038000106811523 37.03799819946289,-8.552000045776367 37.03799819946289,-8.552000045776367 C47.07600021362305,-1.4529999494552612 44.617000579833984,14.074000358581543 32.87699890136719,17.724000930786133 C32.87699890136719,17.724000930786133 28.76300048828125,19.00200080871582 28.76300048828125,19.00200080871582 C24.10099983215332,20.451000213623047 20.45199966430664,24.101999282836914 19.003000259399414,28.763999938964844 C19.003000259399414,28.763999938964844 17.724000930786133,32.875999450683594 17.724000930786133,32.875999450683594 C14.074999809265137,44.61600112915039 -1.4529999494552612,47.07500076293945 -8.550999641418457,37.0369987487793 C-8.550999641418457,37.0369987487793 -11.036999702453613,33.52199935913086 -11.036999702453613,33.52199935913086 C-13.857000350952148,29.535999298095703 -18.45599937438965,27.191999435424805 -23.33799934387207,27.2549991607666 C-23.33799934387207,27.2549991607666 -27.643999099731445,27.309999465942383 -27.643999099731445,27.309999465942383 C-39.9370002746582,27.465999603271484 -47.07500076293945,13.458999633789062 -39.72100067138672,3.6059999465942383 C-39.72100067138672,3.6059999465942383 -37.145999908447266,0.1550000011920929 -37.145999908447266,0.1550000011920929 C-34.22600173950195,-3.757999897003174 -33.417999267578125,-8.857000350952148 -34.98699951171875,-13.480999946594238 C-34.98699951171875,-13.480999946594238 -36.369998931884766,-17.558000564575195 -36.369998931884766,-17.558000564575195 C-40.31800079345703,-29.20199966430664 -29.20199966430664,-40.31800079345703 -17.558000564575195,-36.369998931884766z"></path></g></g><g transform="matrix(1,0,0,1,1360.219970703125,1161.1160888671875)" opacity="0.044224717681658206" style="display: none;"><g opacity="1" transform="matrix(1,0,0,1,60.54800033569336,78.81999969482422)"><path stroke-linecap="round" stroke-linejoin="round" fill-opacity="0" stroke="rgb(6,111,172)" stroke-opacity="1" stroke-width="15" d=" M-12.409000396728516,-41.31999969482422 C8.345000267028809,-38.58700180053711 23.04800033569336,-18.302000045776367 20.16200065612793,3.615000009536743 C17.275999069213867,25.533000946044922 -2.177000045776367,41.31999969482422 -22.93000030517578,38.58599853515625 C-22.969999313354492,38.58100128173828 -23.009000778198242,38.57600021362305 -23.04800033569336,38.57099914550781"></path></g></g><g transform="matrix(1,0,0,1,1280.5989990234375,1385.386962890625)" opacity="0.044224717681658206" style="display: none;"><g opacity="1" transform="matrix(1,0,0,1,33.513999938964844,41.66400146484375)"><path fill="rgb(6,111,172)" fill-opacity="1" d=" M28.858999252319336,29.05500030517578 C28.858999252319336,29.05500030517578 10.732000350952148,39.52000045776367 10.732000350952148,39.52000045776367 C7.451000213623047,41.41400146484375 3.255000114440918,40.290000915527344 1.3609999418258667,37.00899887084961 C1.3609999418258667,37.00899887084961 -31.3700008392334,-19.680999755859375 -31.3700008392334,-19.680999755859375 C-33.263999938964844,-22.964000701904297 -32.13999938964844,-27.159000396728516 -28.858999252319336,-29.05299949645996 C-28.858999252319336,-29.05299949645996 -10.732000350952148,-39.51900100708008 -10.732000350952148,-39.51900100708008 C-7.451000213623047,-41.41400146484375 -3.255000114440918,-40.290000915527344 -1.3609999418258667,-37.007999420166016 C-1.3609999418258667,-37.007999420166016 31.3700008392334,19.683000564575195 31.3700008392334,19.683000564575195 C33.263999938964844,22.964000701904297 32.13999938964844,27.15999984741211 28.858999252319336,29.05500030517578z"></path></g></g><g transform="matrix(1,0,0,1,686.166015625,1370.916015625)" opacity="0.044224717681658206" style="display: none;"><g opacity="1" transform="matrix(1,0,0,1,88.37799835205078,84.13099670410156)"><path stroke-linecap="round" stroke-linejoin="round" fill-opacity="0" stroke="rgb(70,190,89)" stroke-opacity="1" stroke-width="20" d=" M-25.635000228881836,34.13199996948242 C-38.37799835205078,17.52400016784668 -34.43299865722656,-7.216000080108643 -16.893999099731445,-20.67300033569336 C0.6449999809265137,-34.13100051879883 25.562999725341797,-31.538000106811523 38.305999755859375,-14.930999755859375 C38.305999755859375,-14.930999755859375 38.37900161743164,-14.836999893188477 38.37900161743164,-14.836999893188477"></path></g></g><g transform="matrix(0.8799999952316284,0,0,0.8799999952316284,641.7230224609375,676.548095703125)" opacity="0.2" style="display: block;"><g opacity="1" transform="matrix(1,0,0,1,346.9159851074219,346.9169921875)"><path fill="rgb(6,111,172)" fill-opacity="1" d=" M346.6669921875,0 C346.6669921875,191.45799255371094 191.45899963378906,346.6669921875 0,346.6669921875 C-191.45799255371094,346.6669921875 -346.6669921875,191.45799255371094 -346.6669921875,0 C-346.6669921875,-191.45899963378906 -191.45799255371094,-346.6659851074219 0,-346.6659851074219 C191.45899963378906,-346.6659851074219 346.6669921875,-191.45899963378906 346.6669921875,0z"></path></g></g><g transform="matrix(1,0,0,1,600.093017578125,634.9180297851562)" opacity="1" style="display: block;"><g opacity="1" transform="matrix(1,0,0,1,346.9159851074219,346.9169921875)"><path fill="rgb(6,111,172)" fill-opacity="1" d=" M346.6669921875,0 C346.6669921875,191.45799255371094 191.45899963378906,346.6669921875 0,346.6669921875 C-191.45799255371094,346.6669921875 -346.6669921875,191.45799255371094 -346.6669921875,0 C-346.6669921875,-191.45899963378906 -191.45799255371094,-346.6659851074219 0,-346.6659851074219 C191.45899963378906,-346.6659851074219 346.6669921875,-191.45899963378906 346.6669921875,0z"></path></g></g><g mask="url(#__lottie_element_59)" style="display: none;"><g transform="matrix(1,0,0,1,1415.97900390625,1227.98779296875)" opacity="0.00003990585930566226"><g opacity="1" transform="matrix(1,0,0,1,0,0)"><path fill="rgb(196,209,255)" fill-opacity="0.3" d=" M211.99899291992188,-440 C211.99899291992188,-440 -131.34500122070312,281.9469909667969 -480,280 C-488.8680114746094,279.95098876953125 -136,648 -136,648 C-136,648 519.64599609375,568.072021484375 483.9989929199219,-312 C480.17999267578125,-406.2829895019531 211.99899291992188,-440 211.99899291992188,-440z"></path></g></g></g><g transform="matrix(1,0,0,1,668.9760131835938,754.6170043945312)" opacity="1" style="display: block;"><g opacity="1" transform="matrix(1,0,0,1,278.0329895019531,227.21800231933594)"><path stroke-linecap="round" stroke-linejoin="round" fill-opacity="0" stroke="rgb(255,255,255)" stroke-opacity="1" stroke-width="50" d=" M-153.0330047607422,0.5879999995231628 C-153.0330047607422,0.5879999995231628 -51.40399932861328,102.21800231933594 -51.40399932861328,102.21800231933594 C-51.40399932861328,102.21800231933594 153.03199768066406,-102.21800231933594 153.03199768066406,-102.21800231933594"></path></g></g></g></svg>